<svg width="60" height="60" viewBox="0 0 60 60" fill="none" xmlns="http://www.w3.org/2000/svg">
<path d="M8.75 17.5C8.05965 17.5 7.5 16.9404 7.5 16.25C7.5 15.5597 8.05965 15 8.75 15H51.25C51.9403 15 52.5 15.5597 52.5 16.25C52.5 16.9404 51.9403 17.5 51.25 17.5H8.75ZM8.75 30C8.05965 30 7.5 29.4403 7.5 28.75C7.5 28.0598 8.05965 27.5 8.75 27.5H51.25C51.9403 27.5 52.5 28.0598 52.5 28.75C52.5 29.4403 51.9403 30 51.25 30H8.75ZM8.75 42.5C8.05965 42.5 7.5 41.9403 7.5 41.25C7.5 40.5597 8.05965 40 8.75 40H51.25C51.9403 40 52.5 40.5597 52.5 41.25C52.5 41.9403 51.9403 42.5 51.25 42.5H8.75Z" fill="#55281D"/>
</svg>
