<svg width="60" height="60" viewBox="0 0 60 60" fill="none" xmlns="http://www.w3.org/2000/svg">
<path d="M54 30.7199C54.36 16.9799 43.32 5.81995 29.64 5.99995C16.5 6.17995 5.88 17.0399 6 30.1799C6.06 39.5999 11.58 47.6999 19.5 51.5999C19.98 51.8399 20.52 51.4799 20.46 50.9399C20.4 49.3799 20.46 47.7599 20.76 46.4399C21.06 45.1199 22.26 40.0799 23.04 36.7799C23.4 35.1599 23.46 33.4799 23.16 31.8599C23.04 31.3199 22.98 30.7199 22.98 29.9999C22.98 26.4599 25.02 23.8199 27.6 23.8199C29.76 23.8199 30.84 25.4399 30.84 27.4199C30.84 29.5799 29.46 32.8799 28.74 35.9399C28.14 38.4599 30 40.5599 32.52 40.5599C37.08 40.5599 40.56 35.7599 40.56 28.8599C40.56 22.7399 36.18 18.4799 29.88 18.4799C22.62 18.4799 18.36 23.9399 18.36 29.5799C18.36 31.7999 19.2 34.1399 20.28 35.3999C20.46 35.6399 20.52 35.8799 20.46 36.1199C20.28 36.8999 19.86 38.6399 19.74 38.9999C19.62 39.4799 19.38 39.5399 18.9 39.3599C15.72 37.7999 13.68 33.1199 13.68 29.3999C13.68 21.3599 19.5 13.9799 30.54 13.9799C39.36 13.9799 46.26 20.2799 46.26 28.7399C46.26 37.5599 40.74 44.5799 33 44.5799C30.96 44.5799 29.04 43.7399 27.9 42.5999C27.54 42.2399 26.94 42.4199 26.82 42.8999C26.4 44.3999 25.8 46.9199 25.56 47.6999C25.2 49.1399 24.42 50.8199 23.58 52.3199C23.34 52.6799 23.58 53.2199 24 53.2799C25.98 53.7599 28.02 54.0599 30.12 53.9999C42.84 53.8799 53.64 43.3199 54 30.7199Z" fill="#55281D"/>
</svg>
