<svg width="60" height="60" viewBox="0 0 60 60" fill="none" xmlns="http://www.w3.org/2000/svg">
<path d="M53.94 15.12C52.14 15.9 50.28 16.44 48.3 16.68C50.34 15.48 51.9 13.56 52.62 11.22C50.7 12.36 48.6 13.14 46.38 13.62C44.58 11.7 42 10.5 39.18 10.5C33.72 10.5 29.34 14.94 29.34 20.34C29.34 21.12 29.4 21.84 29.58 22.56C21.42 22.2 14.22 18.24 9.36 12.3C5.88 18.54 9.78 23.7 12.36 25.44C10.8 25.44 9.24 24.96 7.92 24.24C7.92 29.1 11.34 33.12 15.78 34.02C14.82 34.32 12.66 34.5 11.34 34.2C12.6 38.1 16.26 40.98 20.52 41.04C17.16 43.68 12.24 45.78 5.94 45.12C10.32 47.94 15.48 49.56 21.06 49.56C39.18 49.56 49.02 34.56 49.02 21.6C49.02 21.18 49.02 20.76 48.96 20.34C51 18.84 52.68 17.1 53.94 15.12Z" fill="#55281D"/>
</svg>
