<svg width="76" height="84" viewBox="0 0 76 84" fill="none" xmlns="http://www.w3.org/2000/svg">
<path d="M27.1023 60.8743L38 71.6173L48.8977 60.8743L38 50.1313L27.1023 60.8743ZM38 8.73711V8.75326C34.8809 8.75326 31.7618 9.92718 29.3857 12.2696L29.3747 12.2589C27.004 14.6013 25.8132 17.6815 25.8132 20.7617C25.8132 23.8473 26.9985 26.9221 29.3638 29.2538H29.3802L38 37.7459L46.6143 29.2538H46.6307C49.0124 26.906 50.2032 23.8312 50.2032 20.7617H50.1868C50.1868 17.6869 48.996 14.6121 46.6198 12.2696C44.2272 9.91641 41.1082 8.73711 38 8.73711ZM55.1795 67.067L41.1409 80.9063L38 84.0027L34.8591 80.9063L20.8205 67.067L6.78186 80.9063L0.5 74.7136L31.7236 43.9386L23.1092 35.4465L23.1202 35.4357C18.996 31.3755 16.9366 26.0605 16.9366 20.7617C16.9366 15.4575 18.996 10.148 23.1092 6.09309V6.08232C27.2225 2.02744 32.614 -0.00268555 38 -0.00268555V0.0134693C43.3969 0.0134693 48.7939 2.03821 52.8962 6.08232C57.0095 10.1372 59.0634 15.4522 59.0634 20.7671H59.047C59.047 26.0767 56.9931 31.3863 52.8853 35.4411L52.8962 35.4519L44.2819 43.9386L75.5 74.7136L69.2181 80.9063L55.1795 67.067Z" fill="#55281D"/>
</svg>
