<svg width="432" height="84" viewBox="0 0 432 84" fill="none" xmlns="http://www.w3.org/2000/svg">
<path d="M112.052 22.2879V71.7627H102.732V22.2879H87.5V14.3688H127.206V22.2879H112.052Z" fill="#55281D"/>
<path d="M135.546 40.5175C136.46 38.0608 137.661 36.2444 139.149 35.0683C140.663 33.8921 142.53 33.3041 144.748 33.3041C145.949 33.3041 147.124 33.4478 148.273 33.7353C149.447 34.0228 150.596 34.441 151.719 34.9898L148.664 42.2033C147.933 41.6806 147.137 41.3016 146.276 41.0664C145.44 40.805 144.5 40.6744 143.456 40.6744C140.637 40.6744 138.614 41.8113 137.387 44.0851C136.16 46.3327 135.546 50.1224 135.546 55.4541V71.7627H127.049V34.5194H135.546V40.5175Z" fill="#55281D"/>
<path d="M191.503 71.7627H183.006V66.9407C181.491 69.0838 179.716 70.6781 177.68 71.7235C175.67 72.7689 173.36 73.2916 170.749 73.2916C165.502 73.2916 161.364 71.5014 158.336 67.9208C155.334 64.3141 153.833 59.3875 153.833 53.1411C153.833 47.2083 155.373 42.4254 158.454 38.7926C161.534 35.1336 165.554 33.3041 170.514 33.3041C173.542 33.3041 176.127 33.9444 178.267 35.2251C180.434 36.4796 182.014 38.296 183.006 40.6744V34.5978H191.503V71.7627ZM183.24 53.0627C183.24 49.2207 182.34 46.2282 180.539 44.0851C178.763 41.9419 176.27 40.8704 173.059 40.8704C169.849 40.8704 167.316 41.9811 165.463 44.2027C163.636 46.3981 162.722 49.4559 162.722 53.3763C162.722 57.3228 163.609 60.3676 165.385 62.5107C167.16 64.6538 169.666 65.7254 172.903 65.7254C175.957 65.7254 178.437 64.5623 180.343 62.2363C182.275 59.9102 183.24 56.8523 183.24 53.0627Z" fill="#55281D"/>
<path d="M216.29 73.9973L196.828 34.5978H206.109L214.214 53.2979C214.475 53.8729 214.788 54.7353 215.154 55.8853C215.519 57.0353 215.898 58.4074 216.29 60.0017C216.551 58.8778 216.851 57.7671 217.19 56.6694C217.556 55.5455 217.986 54.4217 218.482 53.2979L226.549 34.5978H235.79L216.29 73.9973Z" fill="#55281D"/>
<path d="M276.906 54.4348H247.224C247.433 57.9108 248.464 60.6289 250.318 62.5891C252.171 64.5231 254.638 65.4902 257.718 65.4902C260.459 65.4902 262.744 64.9152 264.571 63.7652C266.398 62.6152 267.991 60.7596 269.348 58.1983L276.514 62.1971C274.426 65.9345 271.841 68.7179 268.761 70.5474C265.68 72.3769 262.065 73.2916 257.914 73.2916C251.962 73.2916 247.224 71.4752 243.7 67.8424C240.176 64.2095 238.414 59.3613 238.414 53.2979C238.414 47.4696 240.228 42.6868 243.857 38.9494C247.511 35.1859 252.197 33.3041 257.914 33.3041C263.892 33.3041 268.552 35.016 271.893 38.4398C275.235 41.8635 276.906 46.6594 276.906 52.8274V54.4348ZM268.095 48.7111C267.756 46.0452 266.738 44.0197 265.041 42.6345C263.344 41.2232 261.021 40.5175 258.071 40.5175C255.277 40.5175 253.032 41.1971 251.336 42.5561C249.639 43.9152 248.451 45.9668 247.772 48.7111H268.095Z" fill="#55281D"/>
<path d="M286.186 71.7627V10.9973H294.683V71.7627H286.186Z" fill="#55281D"/>
<path d="M307.253 71.7627V10.9973H315.75V71.7627H307.253Z" fill="#55281D"/>
<path d="M327.184 18.5244C327.184 17.0869 327.706 15.8455 328.75 14.8001C329.821 13.7546 331.087 13.2319 332.549 13.2319C334.063 13.2319 335.316 13.7416 336.308 14.7608C337.326 15.754 337.835 17.0085 337.835 18.5244C337.835 20.0403 337.326 21.3209 336.308 22.3663C335.29 23.3856 334.037 23.8953 332.549 23.8953C331.087 23.8953 329.821 23.3725 328.75 22.3271C327.706 21.2556 327.184 19.988 327.184 18.5244ZM328.32 71.7627V34.5978H336.817V71.7627H328.32Z" fill="#55281D"/>
<path d="M383.923 71.7627H375.426V66.9407C373.912 69.0838 372.137 70.6781 370.101 71.7235C368.091 72.7689 365.78 73.2916 363.17 73.2916C357.923 73.2916 353.785 71.5014 350.757 67.9208C347.755 64.3141 346.254 59.3875 346.254 53.1411C346.254 47.2083 347.794 42.4254 350.874 38.7926C353.955 35.1336 357.975 33.3041 362.935 33.3041C365.963 33.3041 368.548 33.9444 370.688 35.2251C372.855 36.4796 374.434 38.296 375.426 40.6744V34.5978H383.923V71.7627ZM375.661 53.0627C375.661 49.2207 374.761 46.2282 372.959 44.0851C371.184 41.9419 368.691 40.8704 365.48 40.8704C362.269 40.8704 359.737 41.9811 357.884 44.2027C356.056 46.3981 355.143 49.4559 355.143 53.3763C355.143 57.3228 356.03 60.3676 357.805 62.5107C359.58 64.6538 362.087 65.7254 365.324 65.7254C368.378 65.7254 370.858 64.5623 372.764 62.2363C374.695 59.9102 375.661 56.8523 375.661 53.0627Z" fill="#55281D"/>
<path d="M395.671 71.7627V34.5978H403.659V40.6744C405.356 38.1131 407.353 36.2444 409.65 35.0683C411.947 33.8921 414.741 33.3041 418.03 33.3041C420.797 33.3041 423.146 33.7484 425.078 34.637C427.036 35.4995 428.563 36.7932 429.66 38.5182C430.312 39.5375 430.782 40.7266 431.069 42.0857C431.356 43.4447 431.5 45.8231 431.5 49.2207V71.7627H422.924V52.6706C422.924 47.7832 422.324 44.5424 421.123 42.9482C419.948 41.3277 417.847 40.5175 414.819 40.5175C412.835 40.5175 411.06 40.8834 409.493 41.6152C407.953 42.347 406.739 43.3794 405.852 44.7123C405.225 45.6009 404.781 46.7509 404.52 48.1622C404.285 49.5474 404.168 51.7689 404.168 54.8268V71.7627H395.671Z" fill="#55281D"/>
<path d="M27.1023 60.8743L38 71.6173L48.8977 60.8743L38 50.1313L27.1023 60.8743ZM38 8.73711V8.75326C34.8809 8.75326 31.7618 9.92718 29.3857 12.2696L29.3747 12.2589C27.004 14.6013 25.8132 17.6815 25.8132 20.7617C25.8132 23.8473 26.9985 26.9221 29.3638 29.2538H29.3802L38 37.7459L46.6143 29.2538H46.6307C49.0124 26.906 50.2032 23.8312 50.2032 20.7617H50.1868C50.1868 17.6869 48.996 14.6121 46.6198 12.2696C44.2272 9.91641 41.1082 8.73711 38 8.73711ZM55.1795 67.067L41.1409 80.9063L38 84.0027L34.8591 80.9063L20.8205 67.067L6.78186 80.9063L0.5 74.7136L31.7236 43.9386L23.1092 35.4465L23.1202 35.4357C18.996 31.3755 16.9366 26.0605 16.9366 20.7617C16.9366 15.4575 18.996 10.148 23.1092 6.09309V6.08232C27.2225 2.02744 32.614 -0.00268555 38 -0.00268555V0.0134693C43.3969 0.0134693 48.7939 2.03821 52.8962 6.08232C57.0095 10.1372 59.0634 15.4522 59.0634 20.7671H59.047C59.047 26.0767 56.9931 31.3863 52.8853 35.4411L52.8962 35.4519L44.2819 43.9386L75.5 74.7136L69.2181 80.9063L55.1795 67.067Z" fill="#55281D"/>
</svg>
