<svg width="319" height="62" viewBox="0 0 319 62" fill="none" xmlns="http://www.w3.org/2000/svg">
<g clip-path="url(#clip0_65_4187)">
<path d="M82.5639 16.4981V53.1163H75.6662V16.4981H64.3921V10.6369H93.78V16.4981H82.5639Z" fill="white"/>
<path d="M99.9532 29.9906C100.629 28.1722 101.518 26.8278 102.62 25.9573C103.74 25.0868 105.122 24.6516 106.764 24.6516C107.653 24.6516 108.522 24.758 109.372 24.9708C110.242 25.1836 111.092 25.4931 111.923 25.8993L109.662 31.2382C109.121 30.8514 108.532 30.5709 107.894 30.3968C107.276 30.2033 106.58 30.1066 105.808 30.1066C103.721 30.1066 102.223 30.9481 101.315 32.631C100.407 34.2946 99.9532 37.0995 99.9532 41.0457V53.1163H93.6641V25.5511H99.9532V29.9906Z" fill="white"/>
<path d="M141.369 53.1163H135.08V49.5474C133.959 51.1336 132.645 52.3136 131.138 53.0873C129.65 53.8611 127.94 54.248 126.008 54.248C122.124 54.248 119.062 52.9229 116.821 50.2728C114.599 47.6033 113.488 43.9569 113.488 39.3337C113.488 34.9426 114.628 31.4027 116.908 28.7138C119.188 26.0057 122.163 24.6516 125.834 24.6516C128.075 24.6516 129.988 25.1255 131.573 26.0734C133.176 27.0019 134.345 28.3463 135.08 30.1066V25.6091H141.369V53.1163ZM135.253 39.2757C135.253 36.4321 134.587 34.2172 133.254 32.631C131.94 31.0448 130.095 30.2517 127.718 30.2517C125.342 30.2517 123.467 31.0738 122.096 32.7181C120.743 34.343 120.067 36.6062 120.067 39.5078C120.067 42.4288 120.724 44.6823 122.038 46.2686C123.351 47.8548 125.206 48.6479 127.602 48.6479C129.863 48.6479 131.698 47.7871 133.109 46.0654C134.539 44.3438 135.253 42.0806 135.253 39.2757Z" fill="white"/>
<path d="M159.714 54.7702L145.31 25.6091H152.179L158.178 39.4498C158.371 39.8753 158.603 40.5137 158.874 41.3648C159.144 42.216 159.424 43.2315 159.714 44.4115C159.908 43.5797 160.13 42.7576 160.381 41.9452C160.651 41.1134 160.97 40.2816 161.337 39.4498L167.308 25.6091H174.147L159.714 54.7702Z" fill="white"/>
<path d="M204.579 40.2912H182.61C182.765 42.864 183.528 44.8758 184.9 46.3266C186.272 47.758 188.097 48.4738 190.377 48.4738C192.406 48.4738 194.097 48.0482 195.449 47.1971C196.802 46.3459 197.98 44.9725 198.985 43.0768L204.289 46.0364C202.743 48.8026 200.83 50.8628 198.55 52.2168C196.27 53.5709 193.594 54.248 190.522 54.248C186.117 54.248 182.61 52.9035 180.002 50.2147C177.393 47.5259 176.089 43.9376 176.089 39.4498C176.089 35.1361 177.432 31.5961 180.118 28.8299C182.823 26.0444 186.291 24.6516 190.522 24.6516C194.947 24.6516 198.396 25.9186 200.869 28.4527C203.342 30.9868 204.579 34.5364 204.579 39.1016V40.2912ZM198.058 36.0549C197.806 34.0818 197.053 32.5827 195.797 31.5574C194.541 30.5128 192.822 29.9906 190.638 29.9906C188.571 29.9906 186.909 30.4935 185.653 31.4994C184.397 32.5053 183.518 34.0238 183.016 36.0549H198.058Z" fill="white"/>
<path d="M211.447 53.1163V8.14148H217.736V53.1163H211.447Z" fill="white"/>
<path d="M227.04 53.1163V8.14148H233.329V53.1163H227.04Z" fill="white"/>
<path d="M241.792 13.7126C241.792 12.6486 242.178 11.7298 242.951 10.956C243.743 10.1823 244.68 9.79539 245.762 9.79539C246.883 9.79539 247.81 10.1726 248.544 10.927C249.298 11.6621 249.675 12.5906 249.675 13.7126C249.675 14.8345 249.298 15.7824 248.544 16.5561C247.791 17.3105 246.864 17.6878 245.762 17.6878C244.68 17.6878 243.743 17.3009 242.951 16.5271C242.178 15.734 241.792 14.7958 241.792 13.7126ZM242.632 53.1163V25.6091H248.921V53.1163H242.632Z" fill="white"/>
<path d="M283.787 53.1163H277.498V49.5474C276.377 51.1336 275.063 52.3136 273.556 53.0873C272.068 53.8611 270.358 54.248 268.426 54.248C264.543 54.248 261.48 52.9229 259.239 50.2728C257.017 47.6033 255.906 43.9569 255.906 39.3337C255.906 34.9426 257.046 31.4027 259.326 28.7138C261.606 26.0057 264.581 24.6516 268.252 24.6516C270.494 24.6516 272.406 25.1255 273.991 26.0734C275.594 27.0019 276.763 28.3463 277.498 30.1066V25.6091H283.787V53.1163ZM277.672 39.2757C277.672 36.4321 277.005 34.2172 275.672 32.631C274.358 31.0448 272.513 30.2517 270.136 30.2517C267.76 30.2517 265.885 31.0738 264.514 32.7181C263.161 34.343 262.485 36.6062 262.485 39.5078C262.485 42.4288 263.142 44.6823 264.456 46.2686C265.77 47.8548 267.624 48.6479 270.02 48.6479C272.281 48.6479 274.116 47.7871 275.527 46.0654C276.957 44.3438 277.672 42.0806 277.672 39.2757Z" fill="white"/>
<path d="M292.481 53.1163V25.6091H298.394V30.1066C299.65 28.2109 301.128 26.8278 302.828 25.9573C304.528 25.0868 306.596 24.6516 309.03 24.6516C311.078 24.6516 312.817 24.9805 314.247 25.6381C315.696 26.2765 316.826 27.234 317.638 28.5107C318.121 29.2652 318.469 30.1453 318.681 31.1512C318.894 32.1571 319 33.9174 319 36.4321V53.1163H312.653V38.9855C312.653 35.3682 312.209 32.9695 311.32 31.7895C310.45 30.5902 308.895 29.9906 306.654 29.9906C305.185 29.9906 303.871 30.2614 302.712 30.803C301.572 31.3446 300.674 32.1087 300.017 33.0953C299.553 33.753 299.225 34.6041 299.031 35.6487C298.857 36.6739 298.771 38.3182 298.771 40.5814V53.1163H292.481Z" fill="white"/>
<path d="M19.6894 45.0574L27.7552 53.0088L35.821 45.0574L27.7552 37.1061L19.6894 45.0574ZM27.7552 6.46866V6.48062C25.4467 6.48062 23.1381 7.34948 21.3794 9.08323L21.3713 9.07526C19.6167 10.809 18.7353 13.0888 18.7353 15.3686C18.7353 17.6523 19.6126 19.9281 21.3632 21.6539H21.3754L27.7552 27.9392L34.131 21.6539H34.1432C35.9059 19.9161 36.7873 17.6404 36.7873 15.3686H36.7752C36.7752 13.0928 35.8938 10.817 34.1351 9.08323C32.3642 7.34151 30.0557 6.46866 27.7552 6.46866ZM40.4705 49.6409L30.0799 59.8839L27.7552 62.1757L25.4305 59.8839L15.04 49.6409L4.64945 59.8839L0 55.3005L23.1098 32.5227L16.734 26.2373L16.7421 26.2294C13.6896 23.2242 12.1654 19.2904 12.1654 15.3686C12.1654 11.4427 13.6896 7.5129 16.734 4.51172V4.50375C19.7784 1.50258 23.7688 0 27.7552 0V0.0119569C31.7497 0.0119569 35.7442 1.51055 38.7805 4.50375C41.8249 7.50492 43.345 11.4387 43.345 15.3725H43.3329C43.3329 19.3024 41.8127 23.2322 38.7724 26.2334L38.7805 26.2413L32.4047 32.5227L55.5104 55.3005L50.861 59.8839L40.4705 49.6409Z" fill="white"/>
</g>
<defs>
<clipPath id="clip0_65_4187">
<rect width="319" height="62" fill="white"/>
</clipPath>
</defs>
</svg>
